<svg width="229" height="102" viewBox="0 0 229 102" fill="none" xmlns="http://www.w3.org/2000/svg">
<g filter="url(#filter0_d_1_132)">
<rect x="20" width="189" height="62" rx="31" fill="#FFC300" shape-rendering="crispEdges"/>
<path fill-rule="evenodd" clip-rule="evenodd" d="M49.9963 31C49.344 31 48.8663 31.6144 49.0272 32.2466L50.4249 37.7398C50.7632 39.0693 51.9603 40 53.3322 40H58.6652C60.0383 40 61.2362 39.0678 61.5734 37.7367L62.9644 32.2456C63.1245 31.6137 62.6469 31 61.9951 31H49.9963ZM53 35C53 34.4477 53.4477 34 54 34C54.5523 34 55 34.4477 55 35V36C55 36.5523 54.5523 37 54 37C53.4477 37 53 36.5523 53 36V35ZM57 35C57 34.4477 57.4477 34 58 34C58.5523 34 59 34.4477 59 35V36C59 36.5523 58.5523 37 58 37C57.4477 37 57 36.5523 57 36V35Z" fill="#323232"/>
<path d="M47 28C47 27.4477 47.4477 27 48 27H64C64.5523 27 65 27.4477 65 28C65 28.5523 64.5523 29 64 29H48C47.4477 29 47 28.5523 47 28Z" fill="#323232"/>
<path fill-rule="evenodd" clip-rule="evenodd" d="M54.7071 23.7071C55.0976 23.3166 55.0976 22.6834 54.7071 22.2929C54.3166 21.9024 53.6834 21.9024 53.2929 22.2929L52.2929 23.2929C51.9024 23.6834 51.9024 24.3166 52.2929 24.7071C52.6834 25.0976 53.3166 25.0976 53.7071 24.7071L54.7071 23.7071ZM57.2929 23.7071C56.9024 23.3166 56.9024 22.6834 57.2929 22.2929C57.6834 21.9024 58.3166 21.9024 58.7071 22.2929L59.7071 23.2929C60.0976 23.6834 60.0976 24.3166 59.7071 24.7071C59.3166 25.0976 58.6834 25.0976 58.2929 24.7071L57.2929 23.7071Z" fill="#323232"/>
<path d="M87.84 38.14C86.5467 38.14 85.3533 37.84 84.26 37.24C83.18 36.6267 82.32 35.78 81.68 34.7C81.0533 33.6067 80.74 32.38 80.74 31.02C80.74 29.66 81.0533 28.44 81.68 27.36C82.32 26.28 83.18 25.44 84.26 24.84C85.3533 24.2267 86.5467 23.92 87.84 23.92C89.1467 23.92 90.34 24.2267 91.42 24.84C92.5133 25.44 93.3733 26.28 94 27.36C94.6267 28.44 94.94 29.66 94.94 31.02C94.94 32.38 94.6267 33.6067 94 34.7C93.3733 35.78 92.5133 36.6267 91.42 37.24C90.34 37.84 89.1467 38.14 87.84 38.14ZM87.84 36.16C88.76 36.16 89.58 35.9533 90.3 35.54C91.02 35.1133 91.58 34.5133 91.98 33.74C92.3933 32.9533 92.6 32.0467 92.6 31.02C92.6 29.9933 92.3933 29.0933 91.98 28.32C91.58 27.5467 91.02 26.9533 90.3 26.54C89.58 26.1267 88.76 25.92 87.84 25.92C86.92 25.92 86.1 26.1267 85.38 26.54C84.66 26.9533 84.0933 27.5467 83.68 28.32C83.28 29.0933 83.08 29.9933 83.08 31.02C83.08 32.0467 83.28 32.9533 83.68 33.74C84.0933 34.5133 84.66 35.1133 85.38 35.54C86.1 35.9533 86.92 36.16 87.84 36.16ZM99.4636 28.58C99.7969 28.02 100.237 27.5867 100.784 27.28C101.344 26.96 102.004 26.8 102.764 26.8V29.16H102.184C101.29 29.16 100.61 29.3867 100.144 29.84C99.6903 30.2933 99.4636 31.08 99.4636 32.2V38H97.1836V26.98H99.4636V28.58ZM104.099 32.44C104.099 31.3333 104.326 30.3533 104.779 29.5C105.246 28.6467 105.873 27.9867 106.659 27.52C107.459 27.04 108.346 26.8 109.319 26.8C110.039 26.8 110.746 26.96 111.439 27.28C112.146 27.5867 112.706 28 113.119 28.52V23.2H115.419V38H113.119V36.34C112.746 36.8733 112.226 37.3133 111.559 37.66C110.906 38.0067 110.153 38.18 109.299 38.18C108.339 38.18 107.459 37.94 106.659 37.46C105.873 36.9667 105.246 36.2867 104.779 35.42C104.326 34.54 104.099 33.5467 104.099 32.44ZM113.119 32.48C113.119 31.72 112.959 31.06 112.639 30.5C112.333 29.94 111.926 29.5133 111.419 29.22C110.913 28.9267 110.366 28.78 109.779 28.78C109.193 28.78 108.646 28.9267 108.139 29.22C107.633 29.5 107.219 29.92 106.899 30.48C106.593 31.0267 106.439 31.68 106.439 32.44C106.439 33.2 106.593 33.8667 106.899 34.44C107.219 35.0133 107.633 35.4533 108.139 35.76C108.659 36.0533 109.206 36.2 109.779 36.2C110.366 36.2 110.913 36.0533 111.419 35.76C111.926 35.4667 112.333 35.04 112.639 34.48C112.959 33.9067 113.119 33.24 113.119 32.48ZM128.514 32.22C128.514 32.6333 128.487 33.0067 128.434 33.34H120.014C120.081 34.22 120.407 34.9267 120.994 35.46C121.581 35.9933 122.301 36.26 123.154 36.26C124.381 36.26 125.247 35.7467 125.754 34.72H128.214C127.881 35.7333 127.274 36.5667 126.394 37.22C125.527 37.86 124.447 38.18 123.154 38.18C122.101 38.18 121.154 37.9467 120.314 37.48C119.487 37 118.834 36.3333 118.354 35.48C117.887 34.6133 117.654 33.6133 117.654 32.48C117.654 31.3467 117.881 30.3533 118.334 29.5C118.801 28.6333 119.447 27.9667 120.274 27.5C121.114 27.0333 122.074 26.8 123.154 26.8C124.194 26.8 125.121 27.0267 125.934 27.48C126.747 27.9333 127.381 28.5733 127.834 29.4C128.287 30.2133 128.514 31.1533 128.514 32.22ZM126.134 31.5C126.121 30.66 125.821 29.9867 125.234 29.48C124.647 28.9733 123.921 28.72 123.054 28.72C122.267 28.72 121.594 28.9733 121.034 29.48C120.474 29.9733 120.141 30.6467 120.034 31.5H126.134ZM133.038 28.58C133.371 28.02 133.811 27.5867 134.358 27.28C134.918 26.96 135.578 26.8 136.338 26.8V29.16H135.758C134.864 29.16 134.184 29.3867 133.718 29.84C133.264 30.2933 133.038 31.08 133.038 32.2V38H130.758V26.98H133.038V28.58ZM149.189 26.8C150.056 26.8 150.829 26.98 151.509 27.34C152.202 27.7 152.742 28.2333 153.129 28.94C153.516 29.6467 153.709 30.5 153.709 31.5V38H151.449V31.84C151.449 30.8533 151.202 30.1 150.709 29.58C150.216 29.0467 149.542 28.78 148.689 28.78C147.836 28.78 147.156 29.0467 146.649 29.58C146.156 30.1 145.909 30.8533 145.909 31.84V38H143.629V26.98H145.909V28.24C146.282 27.7867 146.756 27.4333 147.329 27.18C147.916 26.9267 148.536 26.8 149.189 26.8ZM161.397 38.18C160.357 38.18 159.417 37.9467 158.577 37.48C157.737 37 157.077 36.3333 156.597 35.48C156.117 34.6133 155.877 33.6133 155.877 32.48C155.877 31.36 156.124 30.3667 156.617 29.5C157.111 28.6333 157.784 27.9667 158.637 27.5C159.491 27.0333 160.444 26.8 161.497 26.8C162.551 26.8 163.504 27.0333 164.357 27.5C165.211 27.9667 165.884 28.6333 166.377 29.5C166.871 30.3667 167.117 31.36 167.117 32.48C167.117 33.6 166.864 34.5933 166.357 35.46C165.851 36.3267 165.157 37 164.277 37.48C163.411 37.9467 162.451 38.18 161.397 38.18ZM161.397 36.2C161.984 36.2 162.531 36.06 163.037 35.78C163.557 35.5 163.977 35.08 164.297 34.52C164.617 33.96 164.777 33.28 164.777 32.48C164.777 31.68 164.624 31.0067 164.317 30.46C164.011 29.9 163.604 29.48 163.097 29.2C162.591 28.92 162.044 28.78 161.457 28.78C160.871 28.78 160.324 28.92 159.817 29.2C159.324 29.48 158.931 29.9 158.637 30.46C158.344 31.0067 158.197 31.68 158.197 32.48C158.197 33.6667 158.497 34.5867 159.097 35.24C159.711 35.88 160.477 36.2 161.397 36.2ZM184.171 26.98L180.751 38H178.351L176.131 29.86L173.911 38H171.511L168.071 26.98H170.391L172.691 35.84L175.031 26.98H177.411L179.651 35.8L181.931 26.98H184.171Z" fill="#323232"/>
</g>
<defs>
<filter id="filter0_d_1_132" x="0" y="0" width="229" height="102" filterUnits="userSpaceOnUse" color-interpolation-filters="sRGB">
<feFlood flood-opacity="0" result="BackgroundImageFix"/>
<feColorMatrix in="SourceAlpha" type="matrix" values="0 0 0 0 0 0 0 0 0 0 0 0 0 0 0 0 0 0 127 0" result="hardAlpha"/>
<feOffset dy="20"/>
<feGaussianBlur stdDeviation="10"/>
<feComposite in2="hardAlpha" operator="out"/>
<feColorMatrix type="matrix" values="0 0 0 0 0.439216 0 0 0 0 0.564706 0 0 0 0 0.690196 0 0 0 0.2 0"/>
<feBlend mode="normal" in2="BackgroundImageFix" result="effect1_dropShadow_1_132"/>
<feBlend mode="normal" in="SourceGraphic" in2="effect1_dropShadow_1_132" result="shape"/>
</filter>
</defs>
</svg>
